Coordinates
version=1
nRows=16
nColumns=40
inDegrees=yes
endheader
time	pelvis_tilt	pelvis_list	pelvis_rotation	pelvis_tx	pelvis_ty	pelvis_tz	hip_flexion_r	hip_adduction_r	hip_rotation_r	knee_angle_r	knee_angle_r_beta	ankle_angle_r	subtalar_angle_r	mtp_angle_r	hip_flexion_l	hip_adduction_l	hip_rotation_l	knee_angle_l	knee_angle_l_beta	ankle_angle_l	subtalar_angle_l	mtp_angle_l	lumbar_extension	lumbar_bending	lumbar_rotation	arm_flex_r	arm_add_r	arm_rot_r	elbow_flex_r	pro_sup_r	wrist_flex_r	wrist_dev_r	arm_flex_l	arm_add_l	arm_rot_l	elbow_flex_l	pro_sup_l	wrist_flex_l	wrist_dev_l
1760625438.29399991	      2.62643767	     -0.27224362	      2.64199907	     -0.02581132	      0.95213293	     -0.01466440	     80.00000000	     -7.00000000	      0.00000000	     80.00000000	      1.39626340	      0.00000000	      0.00000000	      0.00000000	     80.00000000	     -7.00000000	      0.00000000	     80.00000000	      1.39626340	      0.00000000	      0.00000000	      0.00000000	     -7.23713162	     -1.51871191	      3.33103468	      6.57707330	     -2.53099105	     -2.44261827	      3.47404683	      0.00000000	      1.61298438	      6.15988467	      8.68943117	     -4.89921031	      3.12705737	      5.39749758	      0.00000000	     -8.02261676	      8.54998520
1760625438.32699990	      2.63494827	     -0.27359108	      2.63672861	     -0.02591989	      0.95229865	     -0.01478860	     80.00000000	     -7.00000000	      0.00000000	     80.00000000	      1.39626340	      0.00000000	      0.00000000	      0.00000000	     80.00000000	     -7.00000000	      0.00000000	     80.00000000	      1.39626340	      0.00000000	      0.00000000	      0.00000000	     -7.27575670	     -1.49406812	      3.36288377	      6.58361834	     -2.53536008	     -2.36724563	      3.50412147	      0.00000000	      1.61762055	      6.17792271	      8.66159754	     -4.88274807	      3.14484051	      5.46919190	      0.00000000	     -8.00279623	      8.59831547
1760625438.36100006	      2.64613349	     -0.27094764	      2.64605641	     -0.02639052	      0.95239291	     -0.01522084	     80.00000000	     -7.00000000	      0.00000000	     80.00000000	      1.39626340	      0.00000000	      0.00000000	      0.00000000	     80.00000000	     -7.00000000	      0.00000000	     80.00000000	      1.39626340	      0.00000000	      0.00000000	      0.00000000	     -7.25891509	     -1.44376515	      3.44243134	      6.54264885	     -2.59773482	     -2.38693286	      3.51523307	      0.00000000	      1.62930533	      6.20424943	      8.54651831	     -4.84303957	      3.20744454	      5.47476483	      0.00000000	     -7.87612720	      8.65633128
1760625438.39400005	      2.64262809	     -0.26607684	      2.65224927	     -0.02662929	      0.95244278	     -0.01499457	     80.00000000	     -7.00000000	      0.00000000	     80.00000000	      1.39626340	      0.00000000	      0.00000000	      0.00000000	     80.00000000	     -7.00000000	      0.00000000	     80.00000000	      1.39626340	      0.00000000	      0.00000000	      0.00000000	     -7.27911405	     -1.44612947	      3.42909161	      6.55681387	     -2.59138806	     -2.43366704	      3.52418408	      0.00000000	      1.63791746	      6.17655547	      8.53042914	     -4.84418385	      3.20513289	      5.51122137	      0.00000000	     -7.82723947	      8.64956495
1760625438.42700005	      2.63618893	     -0.26280642	      2.64736332	     -0.02671069	      0.95247509	     -0.01479094	     80.00000000	     -7.00000000	      0.00000000	     80.00000000	      1.39626340	      0.00000000	      0.00000000	      0.00000000	     80.00000000	     -7.00000000	      0.00000000	     80.00000000	      1.39626340	      0.00000000	      0.00000000	      0.00000000	     -7.30764643	     -1.45341521	      3.44474155	      6.57169112	     -2.58430619	     -2.44077839	      3.51286847	      0.00000000	      1.62531838	      6.16246475	      8.53043094	     -4.84163042	      3.23262535	      5.54274712	      0.00000000	     -7.80134175	      8.60980040
1760625438.46099997	      2.62314866	     -0.25349425	      2.64949541	     -0.02720799	      0.95215527	     -0.01462619	     80.00000000	     -7.00000000	      0.00000000	     80.00000000	      1.39626340	      0.00000000	      0.00000000	      0.00000000	     80.00000000	     -7.00000000	      0.00000000	     80.00000000	      1.39626340	      0.00000000	      0.00000000	      0.00000000	     -7.25274414	     -1.47560523	      3.59692182	      6.48165555	     -2.59242570	     -2.65026970	      3.51395771	      0.00000000	      1.66763745	      6.14559307	      8.43964829	     -4.85224588	      3.39434528	      5.52792601	      0.00000000	     -7.68231296	      8.63529788
1760625438.49399996	      2.62783221	     -0.25233069	      2.64293970	     -0.02705832	      0.95185151	     -0.01443133	     80.00000000	     -7.00000000	      0.00000000	     80.00000000	      1.39626340	      0.00000000	      0.00000000	      0.00000000	     80.00000000	     -7.00000000	      0.00000000	     80.00000000	      1.39626340	      0.00000000	      0.00000000	      0.00000000	     -7.27324969	     -1.47848336	      3.60666590	      6.45617975	     -2.59350285	     -2.63624682	      3.49811918	      0.00000000	      1.64936744	      6.15548215	      8.44258940	     -4.85678655	      3.39987579	      5.55777126	      0.00000000	     -7.65954516	      8.64611159
1760625438.52800012	      2.60957326	     -0.24534020	      2.63564033	     -0.02729645	      0.95160500	     -0.01390572	     80.00000000	     -7.00000000	      0.00000000	     80.00000000	      1.39626340	      0.00000000	      0.00000000	      0.00000000	     80.00000000	     -7.00000000	      0.00000000	     80.00000000	      1.39626340	      0.00000000	      0.00000000	      0.00000000	     -7.27349781	     -1.48745525	      3.60964281	      6.43525265	     -2.60077653	     -2.63163600	      3.49240696	      0.00000000	      1.60864026	      6.17084427	      8.43150009	     -4.89049646	      3.40171675	      5.57590212	      0.00000000	     -7.62277677	      8.66685627
1760625438.56100011	      2.61484573	     -0.22764338	      2.62340384	     -0.02714699	      0.95157876	     -0.01334498	     80.00000000	     -7.00000000	      0.00000000	     80.00000000	      1.39626340	      0.00000000	      0.00000000	      0.00000000	     80.00000000	     -7.00000000	      0.00000000	     80.00000000	      1.39626340	      0.00000000	      0.00000000	      0.00000000	     -7.23649903	     -1.55875605	      3.61534855	      6.35267247	     -2.56387968	     -2.71921941	      3.51398044	      0.00000000	      1.57195068	      6.17545032	      8.35234599	     -4.94637324	      3.50374232	      5.53470201	      0.00000000	     -7.61461437	      8.61110065
1760625438.59500003	      2.60174233	     -0.22485652	      2.61951905	     -0.02726223	      0.95161142	     -0.01322875	     80.00000000	     -7.00000000	      0.00000000	     80.00000000	      1.39626340	      0.00000000	      0.00000000	      0.00000000	     80.00000000	     -7.00000000	      0.00000000	     80.00000000	      1.39626340	      0.00000000	      0.00000000	      0.00000000	     -7.19594451	     -1.56603644	      3.67849287	      6.29195270	     -2.57219457	     -2.88032345	      3.54359289	      0.00000000	      1.60039150	      6.14904866	      8.30234506	     -4.94954382	      3.58610769	      5.49437876	      0.00000000	     -7.59391668	      8.57058191
1760625438.62800002	      2.59420950	     -0.22048071	      2.62770070	     -0.02686669	      0.95146615	     -0.01350998	     80.00000000	     -7.00000000	      0.00000000	     80.00000000	      1.39626340	      0.00000000	      0.00000000	      0.00000000	     80.00000000	     -7.00000000	      0.00000000	     80.00000000	      1.39626340	      0.00000000	      0.00000000	      0.00000000	     -7.15321252	     -1.56776471	      3.68040849	      6.20919906	     -2.58043255	     -2.99607127	      3.58716637	      0.00000000	      1.64883031	      6.13259947	      8.26001937	     -4.94267972	      3.59455444	      5.44360537	      0.00000000	     -7.55121002	      8.54999227
1760625438.66199994	      2.57438008	     -0.22088483	      2.62341148	     -0.02644516	      0.95119473	     -0.01324542	     80.00000000	     -7.00000000	      0.00000000	     80.00000000	      1.39626340	      0.00000000	      0.00000000	      0.00000000	     80.00000000	     -7.00000000	      0.00000000	     80.00000000	      1.39626340	      0.00000000	      0.00000000	      0.00000000	     -7.15997228	     -1.57313979	      3.65090085	      6.17791366	     -2.57277942	     -3.02424388	      3.63086561	      0.00000000	      1.68137992	      6.13697353	      8.28295445	     -4.94328522	      3.61476154	      5.43767750	      0.00000000	     -7.55543785	      8.54226621
1760625438.72799993	      2.55866263	     -0.21039464	      2.62715259	     -0.02539236	      0.95085289	     -0.01392008	     80.00000000	     -7.00000000	      0.00000000	     80.00000000	      1.39626340	      0.00000000	      0.00000000	      0.00000000	     80.00000000	     -7.00000000	      0.00000000	     80.00000000	      1.39626340	      0.00000000	      0.00000000	      0.00000000	     -7.12520107	     -1.56266652	      3.68517835	      6.06359276	     -2.58313059	     -3.02604962	      3.64626958	      0.00000000	      1.66430938	      6.20397475	      8.21146279	     -4.95644455	      3.84284269	      5.38721156	      0.00000000	     -7.48852850	      8.59983865
1760625438.76200008	      2.56417954	     -0.21762874	      2.63434860	     -0.02536840	      0.95088815	     -0.01337064	     80.00000000	     -7.00000000	      0.00000000	     80.00000000	      1.39626340	      0.00000000	      0.00000000	      0.00000000	     80.00000000	     -7.00000000	      0.00000000	     80.00000000	      1.39626340	      0.00000000	      0.00000000	      0.00000000	     -7.14666399	     -1.55180046	      3.67555702	      6.03719309	     -2.55956868	     -3.00705045	      3.66828448	      0.00000000	      1.66160127	      6.22297323	      8.18302190	     -4.98564991	      3.93350312	      5.39299690	      0.00000000	     -7.47836165	      8.60408934
1760625438.79500008	      2.56897642	     -0.21274026	      2.62094763	     -0.02513978	      0.95083047	     -0.01307875	     80.00000000	     -7.00000000	      0.00000000	     80.00000000	      1.39626340	      0.00000000	      0.00000000	      0.00000000	     80.00000000	     -7.00000000	      0.00000000	     80.00000000	      1.39626340	      0.00000000	      0.00000000	      0.00000000	     -7.16886356	     -1.55369837	      3.70823102	      6.02243470	     -2.55410415	     -2.97673432	      3.67868496	      0.00000000	      1.64424093	      6.24932546	      8.16097626	     -5.00636809	      3.99010352	      5.40971888	      0.00000000	     -7.44366116	      8.61497593
1760625438.82900000	      2.56053965	     -0.21519877	      2.62310849	     -0.02521896	      0.95087498	     -0.01280299	     80.00000000	     -7.00000000	      0.00000000	     80.00000000	      1.39626340	      0.00000000	      0.00000000	      0.00000000	     80.00000000	     -7.00000000	      0.00000000	     80.00000000	      1.39626340	      0.00000000	      0.00000000	      0.00000000	     -7.19171618	     -1.53739952	      3.71975086	      6.03302380	     -2.54529354	     -2.97494677	      3.69423879	      0.00000000	      1.67329647	      6.23062976	      8.14054203	     -5.03264967	      4.02294177	      5.41649099	      0.00000000	     -7.43108045	      8.60435645
